<svg xmlns="http://www.w3.org/2000/svg" width="165.648" height="20.275" data-name="그룹 66" viewBox="0 0 165.648 20.275">
    <g data-name="그룹 31">
        <path d="M92.748 13.278L92.548.4h3.993v15.873h-5.789L86.758 2.995l.2 13.278h-3.892V.4h5.89z" data-name="패스 43" transform="translate(0 3.203)"/>
        <path d="M20.765 1.597l-2.3 14.774h-4.288L17.172.399h7.093l2.995 15.974h-4.295z" data-name="패스 44" transform="translate(0 3.203)"/>
        <path d="M44.128 1.597l-2.8 14.774h-4.089l-2.7-14.774-.1 14.774h-3.985l.3-15.972h6.487l2.1 12.579 2-12.579h6.589l.3 15.974h-4z" data-name="패스 45" transform="translate(0 3.203)"/>
        <path d="M72.983 14.077a1.34 1.34 0 0 0 1.494-1.166V.399h4.093v12.484c-.3 2.995-2.6 3.993-5.591 3.993s-5.289-1-5.591-3.993V.399h4.095v12.484a1.431 1.431 0 0 0 1.5 1.2" data-name="패스 46" transform="translate(0 3.203)"/>
        <path d="M106.426 13.879a1.381 1.381 0 0 0 1.588-1.137c0-.02.006-.04.009-.061v-2.9h-1.6v-2.3h5.691v4.298a4.1 4.1 0 0 1-.1 1.1c-.3 2.894-2.8 3.993-5.591 3.993s-5.39-1-5.689-3.993c0-.4-.1-.7-.1-1.1V4.991a4.1 4.1 0 0 1 .1-1.1c.4-2.995 2.795-3.893 5.69-3.893s5.291.9 5.591 3.893v1.6h-4.095v-1.5a1.708 1.708 0 0 0-1.6-1.2 1.435 1.435 0 0 0-1.6 1.2 1.941 1.941 0 0 0-.1.8v7.888a1.642 1.642 0 0 0 1.8 1.2" data-name="패스 52" transform="translate(0 3.203)"/>
        <path d="M59.506 11.879a2.429 2.429 0 0 1 0 1.2 1.687 1.687 0 0 1-3.195-.1v-1.7h-4.192v1.2c0 3.494 2.8 4.592 5.79 4.592 2.9 0 5.191-1 5.591-3.594a5.692 5.692 0 0 0 0-2.6c-.7-3.294-6.689-4.292-7.188-6.189a1.1 1.1 0 0 1 0-.8 1.27 1.27 0 0 1 1.492-1h.006a1.286 1.286 0 0 1 1.393 1.169c0 .043.005.086 0 .129v1.1h3.993v-1.3c0-3.494-3.094-3.993-5.39-3.993-2.8 0-5.092.9-5.59 3.494a7.363 7.363 0 0 0 0 2.1c.9 3.294 6.489 4.193 7.286 6.29" data-name="패스 53" transform="translate(0 3.203)"/>
        <path d="M7.387 11.879a2.429 2.429 0 0 1 0 1.2 1.5 1.5 0 0 1-1.5 1.1 1.457 1.457 0 0 1-1.6-1.3v-1.7H0v1.2c0 3.594 2.8 4.692 5.79 4.692s5.291-1 5.691-3.694a5.7 5.7 0 0 0 0-2.6c-.7-3.393-6.789-4.392-7.186-6.189a1.1 1.1 0 0 1 0-.8 1.242 1.242 0 0 1 1.368-1.1h.029a1.357 1.357 0 0 1 1.493 1.2v1.2h3.993v-1.1c0-3.494-3.092-3.993-5.389-3.993C2.894-.005.598.995.2 3.589a3.738 3.738 0 0 0 0 2.1c.7 3.195 6.389 4.193 7.186 6.19" data-name="패스 54" transform="translate(0 3.203)"/>
    </g>
    <g data-name="그룹 32">
        <path d="M7.035 13.62a1.116 1.116 0 0 1-.257.778.9.9 0 0 1-.542.321 12.91 12.91 0 0 1-1.292.038l-.215-1.116a3.514 3.514 0 0 0 .515.032q.708 0 .708-.343v-8.6H4.043v14.574H2.971V4.73h-1.87v10.059h-1.1v-11.1h2.971V.161h1.072v3.528h2.992zm11.7 4.858l-.675.847Q13.92 16.687 12 9.534h-1.566v8.258a24.764 24.764 0 0 0 3.185-1.319l.418.986a43.644 43.644 0 0 1-4.365 1.8l-.44-.858a2.631 2.631 0 0 0 .086-.783V9.532H7.731V8.459h1.587V.201h1.116v6.017a27.1 27.1 0 0 0 5.695-5.158l.944.633a33.642 33.642 0 0 1-6.639 5.887v.879h8.108v1.073h-5.384q1.599 6.191 5.578 8.948z" data-name="패스 55" transform="translate(126.632)"/>
        <path d="M39.017 9.181H24.624q-.043 6.853-2.606 10.124l-.879-.654q2.349-3.335 2.349-9.728V2.66h7.314a25.069 25.069 0 0 0-1.3-2.306L30.639 0a24.919 24.919 0 0 1 1.437 2.66h6.939zM37.87 8.022V3.807H24.624v4.215z" data-name="패스 56" transform="translate(126.632)"/>
    </g>
</svg>
